<svg width="488" height="424" viewBox="0 0 488 424" fill="none" xmlns="http://www.w3.org/2000/svg">
<path d="M218.751 6.27258C201.409 13.8864 182.374 30.806 174.337 46.4567C168.839 57.0314 169.685 58.3004 206.485 95.1006C242.016 130.632 244.131 133.593 244.131 150.512C244.131 160.664 243.285 168.701 242.016 168.701C240.747 168.701 219.174 148.82 194.218 124.287C169.685 99.7535 148.112 79.8729 146.843 79.8729C145.574 79.8729 128.231 95.9466 108.774 115.827L72.8197 152.204L120.618 199.156C146.42 224.959 167.993 246.954 167.993 247.8C167.993 248.223 159.533 249.069 149.804 249.069C132.038 249.069 129.923 247.8 94.3922 208.885L57.5921 168.701L40.6724 177.161C8.52516 193.657 -7.54848 234.687 3.44928 273.18C9.37114 295.598 39.4035 329.437 52.9392 329.437C57.5921 329.437 76.2036 313.364 96.9302 291.368C131.192 255.414 133.73 253.299 150.65 253.299C159.956 253.299 167.993 254.568 167.993 256.683C167.993 258.375 147.266 280.793 121.464 306.173L74.9347 352.702L111.735 389.502L148.958 426.725L198.448 377.235L248.361 327.322V348.895V370.044L208.177 407.268C171.377 441.107 168.416 444.914 172.645 453.374C179.836 466.909 198.025 485.944 210.292 492.289C248.361 511.746 302.927 495.673 322.384 458.872L330.844 443.645L293.621 406.422C258.513 370.89 256.821 368.775 256.821 350.587V331.552L301.658 375.966L346.072 420.38L381.603 382.311L417.134 344.242L371.874 298.559L326.614 253.299H348.61H370.182L406.136 291.368C426.017 312.095 445.474 329.437 448.858 329.437C461.125 329.437 492.426 294.752 497.925 274.872C506.385 243.57 497.079 210.577 473.815 189.427C448.012 165.74 448.858 165.317 406.559 207.193C369.336 243.993 367.644 245.262 350.724 243.993L333.382 242.724L375.258 198.31L417.134 153.896L382.449 118.788C363.414 99.7535 345.649 84.1028 343.111 84.1028C340.573 84.1028 319.846 103.137 297.428 126.402C275.432 149.666 255.975 168.701 254.706 168.701C253.437 168.701 252.591 160.241 252.591 150.089C252.591 131.901 253.86 130.209 292.352 94.2546C331.69 58.3004 332.536 57.0314 326.614 46.4567C306.31 7.96454 257.244 -10.6471 218.751 6.27258ZM280.085 178.007L290.66 182.66V243.57V304.058H280.508C272.471 304.058 266.126 297.713 250.899 273.18L231.864 242.724L231.441 283.754C231.441 306.596 230.172 325.207 228.903 325.207C227.634 325.207 222.981 323.092 218.328 320.978C211.138 316.748 210.292 311.249 210.292 257.529C210.292 198.733 210.292 198.31 220.02 198.31C226.788 198.31 232.71 204.232 241.17 218.614C247.938 229.612 256.821 243.147 261.051 249.069L269.51 259.644L266.549 216.076C265.28 192.388 265.28 172.931 266.549 172.931C267.818 172.931 274.163 175.046 280.085 178.007Z" fill="#7B7B7B" fill-opacity="0.15"/>
</svg>
